<?xml version="1.0" encoding="utf-8"?>
<!-- Generator: Adobe Illustrator 23.0.1, SVG Export Plug-In . SVG Version: 6.00 Build 0)  -->
<svg version="1.1" id="Ñëîé_1" xmlns="http://www.w3.org/2000/svg" xmlns:xlink="http://www.w3.org/1999/xlink" x="0px" y="0px"
	 viewBox="0 0 600 450" style="enable-background:new 0 0 600 450;" xml:space="preserve">
<style type="text/css">
	.st0{fill:url(#SVGID_1_);}
	.st1{fill:url(#SVGID_2_);}
	.st2{fill:url(#SVGID_3_);}
	.st3{opacity:0.6;fill:#26202E;}
	.st4{fill:url(#SVGID_4_);}
	.st5{fill:url(#SVGID_5_);}
	.st6{fill:url(#SVGID_6_);}
	.st7{fill:url(#SVGID_7_);}
	.st8{fill:#332A3C;}
	.st9{opacity:0.4;}
	.st10{fill:#06033E;}
	.st11{display:none;fill:url(#SVGID_8_);}
	.st12{opacity:0.4;fill:#06033E;}
	.st13{opacity:0.4;fill:#0D0C0E;}
	.st14{opacity:0.5;fill:#06033E;}
	.st15{fill:url(#SVGID_9_);}
	.st16{opacity:0.5;}
	.st17{fill:#FFFFFF;}
	.st18{fill:#E8975B;}
	.st19{fill:#F8359E;}
	.st20{fill:url(#SVGID_10_);}
</style>
<linearGradient id="SVGID_1_" gradientUnits="userSpaceOnUse" x1="528.2797" y1="347.799" x2="569" y2="347.799">
	<stop  offset="0" style="stop-color:#A55EBE"/>
	<stop  offset="1" style="stop-color:#26202E"/>
</linearGradient>
<path class="st0" d="M548.64,360.91c-1.5,0-3.01-0.42-4.35-1.27l-14.65-9.26c-0.85-0.54-1.36-1.5-1.36-2.57
	c0-1.07,0.51-2.04,1.36-2.57l14.65-9.26c2.68-1.69,6.01-1.7,8.69,0l14.66,9.26c0.85,0.54,1.36,1.5,1.36,2.57
	c0,1.07-0.51,2.04-1.36,2.57l-14.65,9.26C551.65,360.48,550.14,360.91,548.64,360.91z M548.64,337.23c-1.1,0-2.2,0.31-3.19,0.93
	l-14.65,9.26c-0.17,0.11-0.2,0.28-0.2,0.37c0,0.09,0.03,0.26,0.2,0.37l14.66,9.26c0,0,0,0,0,0c1.96,1.24,4.4,1.24,6.37,0l14.65-9.26
	c0.17-0.11,0.2-0.28,0.2-0.37c0-0.09-0.03-0.26-0.2-0.37l-14.66-9.26C550.84,337.54,549.74,337.23,548.64,337.23z"/>
<linearGradient id="SVGID_2_" gradientUnits="userSpaceOnUse" x1="472.5254" y1="286.6966" x2="540.9248" y2="286.6966">
	<stop  offset="0" style="stop-color:#A55EBE"/>
	<stop  offset="1" style="stop-color:#26202E"/>
</linearGradient>
<path class="st1" d="M506.73,308.34c-2.44,0-4.88-0.69-7.06-2.07l-25.22-15.94c-1.2-0.76-1.92-2.12-1.92-3.63
	c0-1.52,0.72-2.88,1.92-3.63l25.22-15.94c4.35-2.75,9.77-2.76,14.12,0l25.22,15.94c1.2,0.76,1.92,2.12,1.92,3.63
	c0,1.52-0.72,2.88-1.92,3.64l-25.22,15.94C511.61,307.65,509.17,308.34,506.73,308.34z M500.83,304.07c3.64,2.3,8.16,2.3,11.8,0
	l25.22-15.94c0.68-0.43,0.75-1.15,0.75-1.43c0-0.29-0.07-1-0.75-1.43l-25.22-15.94c-3.64-2.3-8.16-2.3-11.8,0l-25.22,15.94
	c-0.68,0.43-0.75,1.14-0.75,1.43c0,0.29,0.07,1,0.75,1.43L500.83,304.07z"/>
<linearGradient id="SVGID_3_" gradientUnits="userSpaceOnUse" x1="21.4822" y1="311.787" x2="89.8815" y2="311.787">
	<stop  offset="0" style="stop-color:#A55EBE"/>
	<stop  offset="1" style="stop-color:#26202E"/>
</linearGradient>
<path class="st2" d="M55.68,333.43c-2.44,0-4.88-0.69-7.06-2.07L23.4,315.42c-1.2-0.76-1.92-2.12-1.92-3.64
	c0-1.52,0.72-2.87,1.92-3.63l25.22-15.94c4.35-2.76,9.77-2.76,14.12,0l25.22,15.94c1.2,0.76,1.92,2.12,1.92,3.63
	c0,1.52-0.72,2.88-1.92,3.63l-25.22,15.94C60.57,332.74,58.12,333.43,55.68,333.43z M55.68,292.69c-2.04,0-4.08,0.58-5.9,1.73
	l-25.22,15.94c-0.68,0.43-0.75,1.14-0.75,1.43c0,0.29,0.07,1,0.75,1.43l25.22,15.94l0,0c3.64,2.3,8.16,2.3,11.8,0l25.22-15.94
	c0.68-0.43,0.75-1.14,0.75-1.43c0-0.29-0.07-1-0.75-1.43l-25.22-15.94C59.76,293.26,57.72,292.69,55.68,292.69z"/>
<g>
	<path class="st3" d="M311.09,402.98l-180.34-114c-2.63-1.66-2.3-4.56,0.74-6.48l115.75-73.17c3.04-1.92,7.63-2.13,10.26-0.47
		l180.34,114c2.63,1.66,2.3,4.56-0.74,6.48l-115.75,73.17C318.31,404.44,313.72,404.65,311.09,402.98z"/>
	<linearGradient id="SVGID_4_" gradientUnits="userSpaceOnUse" x1="101.1146" y1="306.9832" x2="466.17" y2="306.9832">
		<stop  offset="0" style="stop-color:#A55EBE"/>
		<stop  offset="1" style="stop-color:#26202E"/>
	</linearGradient>
	<path class="st4" d="M315.22,423.57c-2.11,0-4.13-0.48-5.68-1.46h0L103.72,292c-1.68-1.06-2.61-2.59-2.61-4.31
		c0-1.98,1.26-3.9,3.45-5.29l140.3-90c3.85-2.43,9.5-2.67,12.87-0.54l205.82,130.11c1.68,1.06,2.61,2.59,2.61,4.31
		c0,1.98-1.26,3.9-3.45,5.29l-140.3,90C320.33,422.89,317.72,423.57,315.22,423.57z M252.09,192.96c-2.11,0-4.35,0.56-6.06,1.64
		l-140.3,90c-1.44,0.91-2.29,2.06-2.29,3.09c0,0.99,0.79,1.7,1.44,2.11l205.83,130.11c0,0,0,0,0,0c2.63,1.66,7.46,1.42,10.54-0.53
		l140.3-90c1.44-0.91,2.29-2.06,2.29-3.09c0-0.99-0.79-1.69-1.44-2.11L256.58,194.06C255.4,193.32,253.79,192.96,252.09,192.96z"/>
	
		<radialGradient id="SVGID_5_" cx="252.6536" cy="20.0872" r="223.2961" gradientTransform="matrix(1.2487 0 0 1.3672 -12.7219 -16.4056)" gradientUnits="userSpaceOnUse">
		<stop  offset="0" style="stop-color:#A55EBE"/>
		<stop  offset="1" style="stop-color:#26202E"/>
	</radialGradient>
	<path class="st5" d="M485.74,131.74L306.1,18.19c-1.23-0.78-2.52-0.94-3.67-0.58v0l0,0c-0.01,0-0.01,0-0.02,0.01l-3.33,1.27
		l1.17,0.3c-0.47,0.61-0.85,1.36-1.1,2.25l-40.62,144.41c-1.01,3.58,0.47,7.93,3.29,9.72l179.63,113.55
		c0.44,0.28,0.88,0.47,1.32,0.59l-0.45,1.06l3.18-1.22l-0.01,0c1.3-0.57,2.37-1.84,2.89-3.68l40.62-144.41
		C490.04,137.88,488.56,133.53,485.74,131.74z"/>
	
		<radialGradient id="SVGID_6_" cx="331.0338" cy="256.5235" r="25.5293" fx="351.5925" fy="271.659" gradientTransform="matrix(1.2487 0 0 1.3672 -12.7219 -16.4056)" gradientUnits="userSpaceOnUse">
		<stop  offset="0" style="stop-color:#3E344B"/>
		<stop  offset="1" style="stop-color:#3E344B"/>
	</radialGradient>
	<path class="st6" d="M435.04,294.52l0.06,0.08L257.67,182.44c-2.61-1.65-7.17-1.44-10.18,0.46l-114.64,72.47l-3.82-1.6l1.07,5.87
		l0.01,0c0.14,0.88,0.71,1.71,1.72,2.35l179.07,113.2c2.61,1.65,7.17,1.44,10.18-0.46l114.93-72.65c1.42-0.9,2.23-2.01,2.44-3.11
		l0.01,0.01l1.1-5.71L435.04,294.52z"/>
	
		<radialGradient id="SVGID_7_" cx="138.5382" cy="150.4007" r="218.96" gradientTransform="matrix(-1.2487 0 0 -8.2029 333.2516 1422.9412)" gradientUnits="userSpaceOnUse">
		<stop  offset="0" style="stop-color:#2C2334"/>
		<stop  offset="1" style="stop-color:#A55EBE"/>
	</radialGradient>
	<path class="st7" d="M311.09,370.02l-180.34-114c-2.63-1.66-2.3-4.56,0.74-6.48l115.75-73.17c3.04-1.92,7.63-2.13,10.26-0.47
		l180.34,114c2.63,1.66,2.3,4.56-0.74,6.48l-115.75,73.17C318.31,371.47,313.72,371.68,311.09,370.02z"/>
	<path class="st8" d="M437.09,294.85l-115.75,73.17c-3.04,1.92-7.63,2.13-10.26,0.47l-180.34-114c-0.9-0.57-1.42-1.28-1.64-2.05
		c-0.35,1.32,0.16,2.65,1.64,3.59l180.34,114c2.63,1.66,7.22,1.45,10.26-0.47l115.75-73.17c2-1.27,2.8-2.95,2.38-4.44
		C439.2,292.98,438.42,294.01,437.09,294.85z"/>
	<g class="st9">
		<path class="st10" d="M216.77,237.52l-6.09-3.85c-0.49-0.31-0.43-0.85,0.14-1.21l7.19-4.54c0.56-0.36,1.42-0.4,1.91-0.09
			l6.09,3.85c0.49,0.31,0.43,0.85-0.14,1.21l-7.19,4.54C218.11,237.79,217.26,237.83,216.77,237.52z"/>
		<path class="st10" d="M226.17,243.46l-6.09-3.85c-0.49-0.31-0.43-0.85,0.14-1.21l7.19-4.54c0.56-0.36,1.42-0.4,1.91-0.09
			l6.09,3.85c0.49,0.31,0.43,0.85-0.14,1.21l-7.19,4.54C227.51,243.73,226.66,243.77,226.17,243.46z"/>
		<path class="st10" d="M235.57,249.41l-6.09-3.85c-0.49-0.31-0.43-0.85,0.14-1.21l7.19-4.54c0.56-0.36,1.42-0.4,1.91-0.09
			l6.09,3.85c0.49,0.31,0.43,0.85-0.14,1.21l-7.19,4.54C236.92,249.68,236.06,249.71,235.57,249.41z"/>
		<path class="st10" d="M248.58,244.5l-6.09-3.85c-0.49-0.31-0.43-0.85,0.14-1.21l6.03-3.81c0.56-0.36,1.42-0.4,1.91-0.09l6.09,3.85
			c0.49,0.31,0.43,0.85-0.14,1.21l-6.03,3.81C249.92,244.77,249.07,244.81,248.58,244.5z"/>
		<path class="st10" d="M257.98,250.44l-6.09-3.85c-0.49-0.31-0.43-0.85,0.14-1.21l6.03-3.81c0.56-0.36,1.42-0.4,1.91-0.09
			l6.09,3.85c0.49,0.31,0.43,0.85-0.14,1.21l-6.03,3.81C259.32,250.71,258.47,250.75,257.98,250.44z"/>
		<path class="st10" d="M267.38,256.38l-6.09-3.85c-0.49-0.31-0.43-0.85,0.14-1.21l6.03-3.81c0.56-0.36,1.42-0.4,1.91-0.09
			l6.09,3.85c0.49,0.31,0.43,0.85-0.14,1.21l-6.03,3.81C268.73,256.65,267.87,256.69,267.38,256.38z"/>
		<path class="st10" d="M276.79,262.33l-6.09-3.85c-0.49-0.31-0.43-0.85,0.14-1.21l6.03-3.81c0.56-0.36,1.42-0.4,1.91-0.09
			l6.09,3.85c0.49,0.31,0.43,0.85-0.14,1.21l-6.03,3.81C278.13,262.6,277.27,262.64,276.79,262.33z"/>
		<path class="st10" d="M286.19,268.27l-6.09-3.85c-0.49-0.31-0.43-0.85,0.14-1.21l6.03-3.81c0.56-0.36,1.42-0.4,1.91-0.09
			l6.09,3.85c0.49,0.31,0.43,0.85-0.14,1.21l-6.03,3.81C287.53,268.54,286.68,268.58,286.19,268.27z"/>
		<path class="st10" d="M295.59,274.22l-6.09-3.85c-0.49-0.31-0.43-0.85,0.14-1.21l6.03-3.81c0.56-0.36,1.42-0.4,1.91-0.09
			l6.09,3.85c0.49,0.31,0.43,0.85-0.14,1.21l-6.03,3.81C296.93,274.49,296.08,274.52,295.59,274.22z"/>
		<path class="st10" d="M304.99,280.16l-6.09-3.85c-0.49-0.31-0.43-0.85,0.14-1.21l6.03-3.81c0.56-0.36,1.42-0.4,1.91-0.09
			l6.09,3.85c0.49,0.31,0.43,0.85-0.14,1.21l-6.03,3.81C306.34,280.43,305.48,280.47,304.99,280.16z"/>
		<path class="st10" d="M314.4,286.1l-6.09-3.85c-0.49-0.31-0.43-0.85,0.14-1.21l6.03-3.81c0.56-0.36,1.42-0.4,1.91-0.09l6.09,3.85
			c0.49,0.31,0.43,0.85-0.14,1.21l-6.03,3.81C315.74,286.37,314.89,286.41,314.4,286.1z"/>
		<path class="st10" d="M323.8,292.05l-6.09-3.85c-0.49-0.31-0.43-0.85,0.14-1.21l6.03-3.81c0.56-0.36,1.42-0.4,1.91-0.09l6.09,3.85
			c0.49,0.31,0.43,0.85-0.14,1.21l-6.03,3.81C325.14,292.32,324.29,292.36,323.8,292.05z"/>
		<path class="st10" d="M333.2,297.99l-6.09-3.85c-0.49-0.31-0.43-0.85,0.14-1.21l6.03-3.81c0.56-0.36,1.42-0.4,1.91-0.09l6.09,3.85
			c0.49,0.31,0.43,0.85-0.14,1.21l-6.03,3.81C334.54,298.26,333.69,298.3,333.2,297.99z"/>
		<path class="st10" d="M262.43,241.68l-6.09-3.85c-0.49-0.31-0.43-0.85,0.14-1.21l6.03-3.81c0.56-0.36,1.42-0.4,1.91-0.09
			l6.09,3.85c0.49,0.31,0.43,0.85-0.14,1.21l-6.03,3.81C263.77,241.95,262.92,241.99,262.43,241.68z"/>
		<path class="st10" d="M252.89,235.65l-6.09-3.85c-0.49-0.31-0.43-0.85,0.14-1.21l6.03-3.81c0.56-0.36,1.42-0.4,1.91-0.09
			l6.09,3.85c0.49,0.31,0.43,0.85-0.14,1.21l-6.03,3.81C254.23,235.92,253.38,235.96,252.89,235.65z"/>
		<path class="st10" d="M243.33,229.61l-13.11-8.29c-0.49-0.31-0.43-0.85,0.14-1.21l6.03-3.81c0.56-0.36,1.42-0.4,1.91-0.09
			l13.11,8.29c0.49,0.31,0.43,0.85-0.14,1.21l-6.03,3.81C244.67,229.88,243.82,229.92,243.33,229.61z"/>
		<path class="st10" d="M250.01,222.26l-10.64-6.73c-0.49-0.31-0.43-0.85,0.14-1.21l6.03-3.81c0.56-0.36,1.42-0.4,1.91-0.09
			l10.64,6.73c0.49,0.31,0.43,0.85-0.14,1.21l-6.03,3.81C251.35,222.53,250.5,222.57,250.01,222.26z"/>
		<path class="st10" d="M271.83,247.63l-6.09-3.85c-0.49-0.31-0.43-0.85,0.14-1.21l6.03-3.81c0.56-0.36,1.42-0.4,1.91-0.09
			l6.09,3.85c0.49,0.31,0.43,0.85-0.14,1.21l-6.03,3.81C273.18,247.9,272.32,247.94,271.83,247.63z"/>
		<path class="st10" d="M281.24,253.57l-6.09-3.85c-0.49-0.31-0.43-0.85,0.14-1.21l6.03-3.81c0.56-0.36,1.42-0.4,1.91-0.09
			l6.09,3.85c0.49,0.31,0.43,0.85-0.14,1.21l-6.03,3.81C282.58,253.84,281.73,253.88,281.24,253.57z"/>
		<path class="st10" d="M290.64,259.51l-6.09-3.85c-0.49-0.31-0.43-0.85,0.14-1.21l6.03-3.81c0.56-0.36,1.42-0.4,1.91-0.09
			l6.09,3.85c0.49,0.31,0.43,0.85-0.14,1.21l-6.03,3.81C291.98,259.78,291.13,259.82,290.64,259.51z"/>
		<path class="st10" d="M300.04,265.46l-6.09-3.85c-0.49-0.31-0.43-0.85,0.14-1.21l6.03-3.81c0.56-0.36,1.42-0.4,1.91-0.09
			l6.09,3.85c0.49,0.31,0.43,0.85-0.14,1.21l-6.03,3.81C301.39,265.73,300.53,265.77,300.04,265.46z"/>
		<path class="st10" d="M309.45,271.4l-6.09-3.85c-0.49-0.31-0.43-0.85,0.14-1.21l6.03-3.81c0.56-0.36,1.42-0.4,1.91-0.09l6.09,3.85
			c0.49,0.31,0.43,0.85-0.14,1.21l-6.03,3.81C310.79,271.67,309.93,271.71,309.45,271.4z"/>
		<path class="st10" d="M318.85,277.35l-6.09-3.85c-0.49-0.31-0.43-0.85,0.14-1.21l6.03-3.81c0.56-0.36,1.42-0.4,1.91-0.09
			l6.09,3.85c0.49,0.31,0.43,0.85-0.14,1.21l-6.03,3.81C320.19,277.62,319.34,277.65,318.85,277.35z"/>
		<path class="st10" d="M328.25,283.29l-6.09-3.85c-0.49-0.31-0.43-0.85,0.14-1.21l6.03-3.81c0.56-0.36,1.42-0.4,1.91-0.09
			l6.09,3.85c0.49,0.31,0.43,0.85-0.14,1.21l-6.03,3.81C329.59,283.56,328.74,283.6,328.25,283.29z"/>
		<path class="st10" d="M337.65,289.23l-6.09-3.85c-0.49-0.31-0.43-0.85,0.14-1.21l6.03-3.81c0.56-0.36,1.42-0.4,1.91-0.09
			l6.09,3.85c0.49,0.31,0.43,0.85-0.14,1.21l-6.03,3.81C339,289.5,338.14,289.54,337.65,289.23z"/>
		<path class="st10" d="M347.06,295.18l-6.09-3.85c-0.49-0.31-0.43-0.85,0.14-1.21l6.03-3.81c0.56-0.36,1.42-0.4,1.91-0.09
			l6.09,3.85c0.49,0.31,0.43,0.85-0.14,1.21l-6.03,3.81C348.4,295.45,347.55,295.49,347.06,295.18z"/>
		<path class="st10" d="M363.77,305.74l-13.28-8.4c-0.49-0.31-0.43-0.85,0.14-1.21l6.03-3.81c0.56-0.36,1.42-0.4,1.91-0.09
			l13.28,8.4c0.49,0.31,0.43,0.85-0.14,1.21l-6.03,3.81C365.12,306.01,364.26,306.05,363.77,305.74z"/>
		<path class="st10" d="M382.08,294.17l-11.21-7.09c-0.49-0.31-0.43-0.85,0.14-1.21l6.03-3.81c0.56-0.36,1.42-0.4,1.91-0.09
			l11.21,7.09c0.49,0.31,0.43,0.85-0.14,1.21l-6.03,3.81C383.42,294.44,382.57,294.48,382.08,294.17z"/>
		<path class="st10" d="M288.3,246.46l-6.09-3.85c-0.49-0.31-0.43-0.85,0.14-1.21l6.03-3.81c0.56-0.36,1.42-0.4,1.91-0.09l6.09,3.85
			c0.49,0.31,0.43,0.85-0.14,1.21l-6.03,3.81C289.64,246.73,288.79,246.77,288.3,246.46z"/>
		<path class="st10" d="M278.66,240.37l-6.09-3.85c-0.49-0.31-0.43-0.85,0.14-1.21l6.03-3.81c0.56-0.36,1.42-0.4,1.91-0.09
			l6.09,3.85c0.49,0.31,0.43,0.85-0.14,1.21l-6.03,3.81C280.01,240.64,279.15,240.68,278.66,240.37z"/>
		<path class="st10" d="M269.03,234.28l-6.09-3.85c-0.49-0.31-0.43-0.85,0.14-1.21l6.03-3.81c0.56-0.36,1.42-0.4,1.91-0.09
			l6.09,3.85c0.49,0.31,0.43,0.85-0.14,1.21l-6.03,3.81C270.37,234.55,269.52,234.59,269.03,234.28z"/>
		<path class="st10" d="M259.39,228.19l-6.09-3.85c-0.49-0.31-0.43-0.85,0.14-1.21l6.03-3.81c0.56-0.36,1.42-0.4,1.91-0.09
			l6.09,3.85c0.49,0.31,0.43,0.85-0.14,1.21l-6.03,3.81C260.73,228.46,259.88,228.5,259.39,228.19z"/>
		<path class="st10" d="M297.7,252.41l-6.09-3.85c-0.49-0.31-0.43-0.85,0.14-1.21l6.03-3.81c0.56-0.36,1.42-0.4,1.91-0.09l6.09,3.85
			c0.49,0.31,0.43,0.85-0.14,1.21l-6.03,3.81C299.05,252.68,298.19,252.72,297.7,252.41z"/>
		<path class="st10" d="M307.11,258.35l-6.09-3.85c-0.49-0.31-0.43-0.85,0.14-1.21l6.03-3.81c0.56-0.36,1.42-0.4,1.91-0.09
			l6.09,3.85c0.49,0.31,0.43,0.85-0.14,1.21l-6.03,3.81C308.45,258.62,307.6,258.66,307.11,258.35z"/>
		<path class="st10" d="M316.51,264.29l-6.09-3.85c-0.49-0.31-0.43-0.85,0.14-1.21l6.03-3.81c0.56-0.36,1.42-0.4,1.91-0.09
			l6.09,3.85c0.49,0.31,0.43,0.85-0.14,1.21l-6.03,3.81C317.85,264.57,317,264.6,316.51,264.29z"/>
		<path class="st10" d="M325.91,270.24l-6.09-3.85c-0.49-0.31-0.43-0.85,0.14-1.21l6.03-3.81c0.56-0.36,1.42-0.4,1.91-0.09
			l6.09,3.85c0.49,0.31,0.43,0.85-0.14,1.21l-6.03,3.81C327.25,270.51,326.4,270.55,325.91,270.24z"/>
		<path class="st10" d="M335.31,276.18l-6.09-3.85c-0.49-0.31-0.43-0.85,0.14-1.21l6.03-3.81c0.56-0.36,1.42-0.4,1.91-0.09
			l6.09,3.85c0.49,0.31,0.43,0.85-0.14,1.21l-6.03,3.81C336.66,276.45,335.8,276.49,335.31,276.18z"/>
		<path class="st10" d="M344.72,282.13l-6.09-3.85c-0.49-0.31-0.43-0.85,0.14-1.21l6.03-3.81c0.56-0.36,1.42-0.4,1.91-0.09
			l6.09,3.85c0.49,0.31,0.43,0.85-0.14,1.21l-6.03,3.81C346.06,282.4,345.21,282.44,344.72,282.13z"/>
		<path class="st10" d="M354.12,288.07l-6.09-3.85c-0.49-0.31-0.43-0.85,0.14-1.21l6.03-3.81c0.56-0.36,1.42-0.4,1.91-0.09
			l6.09,3.85c0.49,0.31,0.43,0.85-0.14,1.21l-6.03,3.81C355.46,288.34,354.61,288.38,354.12,288.07z"/>
		<path class="st10" d="M363.52,294.01l-6.09-3.85c-0.49-0.31-0.43-0.85,0.14-1.21l6.03-3.81c0.56-0.36,1.42-0.4,1.91-0.09
			l6.09,3.85c0.49,0.31,0.43,0.85-0.14,1.21l-6.03,3.81C364.87,294.28,364.01,294.32,363.52,294.01z"/>
		<path class="st10" d="M372.93,299.96l-6.09-3.85c-0.49-0.31-0.43-0.85,0.14-1.21l6.03-3.81c0.56-0.36,1.42-0.4,1.91-0.09
			l6.09,3.85c0.49,0.31,0.43,0.85-0.14,1.21l-6.03,3.81C374.27,300.23,373.41,300.27,372.93,299.96z"/>
		<path class="st10" d="M283.35,231.76l-6.09-3.85c-0.49-0.31-0.43-0.85,0.14-1.21l6.03-3.81c0.56-0.36,1.42-0.4,1.91-0.09
			l6.09,3.85c0.49,0.31,0.43,0.85-0.14,1.21l-6.03,3.81C284.69,232.03,283.84,232.07,283.35,231.76z"/>
		<path class="st10" d="M273.99,225.85L267.9,222c-0.49-0.31-0.43-0.85,0.14-1.21l6.03-3.81c0.56-0.36,1.42-0.4,1.91-0.09l6.09,3.85
			c0.49,0.31,0.43,0.85-0.14,1.21l-6.03,3.81C275.34,226.12,274.48,226.16,273.99,225.85z"/>
		<path class="st10" d="M264.64,219.93l-6.09-3.85c-0.49-0.31-0.43-0.85,0.14-1.21l6.03-3.81c0.56-0.36,1.42-0.4,1.91-0.09
			l6.09,3.85c0.49,0.31,0.43,0.85-0.14,1.21l-6.03,3.81C265.98,220.2,265.13,220.24,264.64,219.93z"/>
		<path class="st10" d="M255.28,214.02l-6.09-3.85c-0.49-0.31-0.43-0.85,0.14-1.21l6.03-3.81c0.56-0.36,1.42-0.4,1.91-0.09
			l6.09,3.85c0.49,0.31,0.43,0.85-0.14,1.21l-6.03,3.81C256.62,214.29,255.77,214.33,255.28,214.02z"/>
		<path class="st10" d="M264.9,207.94l-6.09-3.85c-0.49-0.31-0.43-0.85,0.14-1.21l1.99-1.26c0.56-0.36,1.42-0.4,1.91-0.09l6.09,3.85
			c0.49,0.31,0.43,0.85-0.14,1.21l-1.99,1.26C266.25,208.21,265.39,208.25,264.9,207.94z"/>
		<path class="st10" d="M277.11,215.66l-6.09-3.85c-0.49-0.31-0.43-0.85,0.14-1.21l1.99-1.26c0.56-0.36,1.42-0.4,1.91-0.09
			l6.09,3.85c0.49,0.31,0.43,0.85-0.14,1.21l-1.99,1.26C278.45,215.93,277.6,215.96,277.11,215.66z"/>
		<path class="st10" d="M286.43,221.54l-6.09-3.85c-0.49-0.31-0.43-0.85,0.14-1.21l1.99-1.26c0.56-0.36,1.42-0.4,1.91-0.09
			l6.09,3.85c0.49,0.31,0.43,0.85-0.14,1.21l-1.99,1.26C287.77,221.82,286.92,221.85,286.43,221.54z"/>
		<path class="st10" d="M295.75,227.43l-6.09-3.85c-0.49-0.31-0.43-0.85,0.14-1.21l1.99-1.26c0.56-0.36,1.42-0.4,1.91-0.09
			l6.09,3.85c0.49,0.31,0.43,0.85-0.14,1.21l-1.99,1.26C297.09,227.7,296.23,227.74,295.75,227.43z"/>
		<path class="st10" d="M305.06,233.32l-6.09-3.85c-0.49-0.31-0.43-0.85,0.14-1.21l1.99-1.26c0.56-0.36,1.42-0.4,1.91-0.09
			l6.09,3.85c0.49,0.31,0.43,0.85-0.14,1.21l-1.99,1.26C306.41,233.59,305.55,233.63,305.06,233.32z"/>
		<path class="st10" d="M357.08,266.21l-6.09-3.85c-0.49-0.31-0.43-0.85,0.14-1.21l1.99-1.26c0.56-0.36,1.42-0.4,1.91-0.09
			l6.09,3.85c0.49,0.31,0.43,0.85-0.14,1.21l-1.99,1.26C358.42,266.48,357.57,266.51,357.08,266.21z"/>
		<path class="st10" d="M366.39,272.09l-6.09-3.85c-0.49-0.31-0.43-0.85,0.14-1.21l1.99-1.26c0.56-0.36,1.42-0.4,1.91-0.09
			l6.09,3.85c0.49,0.31,0.43,0.85-0.14,1.21l-1.99,1.26C367.74,272.36,366.88,272.4,366.39,272.09z"/>
		<path class="st10" d="M375.71,277.98l-6.09-3.85c-0.49-0.31-0.43-0.85,0.14-1.21l1.99-1.26c0.56-0.36,1.42-0.4,1.91-0.09
			l6.09,3.85c0.49,0.31,0.43,0.85-0.14,1.21l-1.99,1.26C377.05,278.25,376.2,278.29,375.71,277.98z"/>
		<path class="st10" d="M385.03,283.87l-6.09-3.85c-0.49-0.31-0.43-0.85,0.14-1.21l1.99-1.26c0.56-0.36,1.42-0.4,1.91-0.09
			l6.09,3.85c0.49,0.31,0.43,0.85-0.14,1.21l-1.99,1.26C386.37,284.14,385.52,284.18,385.03,283.87z"/>
		<path class="st10" d="M292.75,237.71l-6.09-3.85c-0.49-0.31-0.43-0.85,0.14-1.21l6.03-3.81c0.56-0.36,1.42-0.4,1.91-0.09
			l6.09,3.85c0.49,0.31,0.43,0.85-0.14,1.21l-6.03,3.81C294.1,237.98,293.24,238.01,292.75,237.71z"/>
		<path class="st10" d="M302.15,243.65l-6.09-3.85c-0.49-0.31-0.43-0.85,0.14-1.21l6.03-3.81c0.56-0.36,1.42-0.4,1.91-0.09
			l6.09,3.85c0.49,0.31,0.43,0.85-0.14,1.21l-6.03,3.81C303.5,243.92,302.64,243.96,302.15,243.65z"/>
		<path class="st10" d="M311.56,249.59l-6.09-3.85c-0.49-0.31-0.43-0.85,0.14-1.21l6.03-3.81c0.56-0.36,1.42-0.4,1.91-0.09
			l6.09,3.85c0.49,0.31,0.43,0.85-0.14,1.21l-6.03,3.81C312.9,249.86,312.05,249.9,311.56,249.59z"/>
		<path class="st10" d="M320.96,255.54l-6.09-3.85c-0.49-0.31-0.43-0.85,0.14-1.21l6.03-3.81c0.56-0.36,1.42-0.4,1.91-0.09
			l6.09,3.85c0.49,0.31,0.43,0.85-0.14,1.21l-6.03,3.81C322.3,255.81,321.45,255.85,320.96,255.54z"/>
		<path class="st10" d="M330.36,261.48l-6.09-3.85c-0.49-0.31-0.43-0.85,0.14-1.21l6.03-3.81c0.56-0.36,1.42-0.4,1.91-0.09
			l6.09,3.85c0.49,0.31,0.43,0.85-0.14,1.21l-6.03,3.81C331.71,261.75,330.85,261.79,330.36,261.48z"/>
		<path class="st10" d="M339.77,267.42l-6.09-3.85c-0.49-0.31-0.43-0.85,0.14-1.21l6.03-3.81c0.56-0.36,1.42-0.4,1.91-0.09
			l6.09,3.85c0.49,0.31,0.43,0.85-0.14,1.21l-6.03,3.81C341.11,267.7,340.25,267.73,339.77,267.42z"/>
		<path class="st10" d="M349.17,273.37l-6.09-3.85c-0.49-0.31-0.43-0.85,0.14-1.21l6.03-3.81c0.56-0.36,1.42-0.4,1.91-0.09
			l6.09,3.85c0.49,0.31,0.43,0.85-0.14,1.21l-6.03,3.81C350.51,273.64,349.66,273.68,349.17,273.37z"/>
		<path class="st10" d="M358.57,279.31l-6.09-3.85c-0.49-0.31-0.43-0.85,0.14-1.21l6.03-3.81c0.56-0.36,1.42-0.4,1.91-0.09
			l6.09,3.85c0.49,0.31,0.43,0.85-0.14,1.21l-6.03,3.81C359.91,279.58,359.06,279.62,358.57,279.31z"/>
		<path class="st10" d="M367.97,285.26l-6.09-3.85c-0.49-0.31-0.43-0.85,0.14-1.21l6.03-3.81c0.56-0.36,1.42-0.4,1.91-0.09
			l6.09,3.85c0.49,0.31,0.43,0.85-0.14,1.21l-6.03,3.81C369.32,285.53,368.46,285.57,367.97,285.26z"/>
		<path class="st10" d="M239,238.44l-17.93-11.34c-0.49-0.31-0.43-0.85,0.14-1.21l6.03-3.81c0.56-0.36,1.42-0.4,1.91-0.09
			l17.93,11.34c0.49,0.31,0.43,0.85-0.14,1.21l-6.03,3.81C240.34,238.71,239.48,238.75,239,238.44z"/>
		<path class="st10" d="M354.51,311.46l-17.93-11.34c-0.49-0.31-0.43-0.85,0.14-1.21l6.03-3.81c0.56-0.36,1.42-0.4,1.91-0.09
			l17.93,11.34c0.49,0.31,0.43,0.85-0.14,1.21l-6.03,3.81C355.85,311.73,355,311.77,354.51,311.46z"/>
		<path class="st10" d="M316.91,300.82l-6.09-3.85c-0.49-0.31-0.43-0.85,0.14-1.21l7.19-4.54c0.56-0.36,1.42-0.4,1.91-0.09
			l6.09,3.85c0.49,0.31,0.43,0.85-0.14,1.21l-7.19,4.54C318.25,301.09,317.4,301.13,316.91,300.82z"/>
		<path class="st10" d="M248.62,257.66l-9.74-6.16c-0.49-0.31-0.43-0.85,0.14-1.21l7.19-4.54c0.56-0.36,1.42-0.4,1.91-0.09
			l9.74,6.16c0.49,0.31,0.43,0.85-0.14,1.21l-7.19,4.54C249.97,257.93,249.11,257.96,248.62,257.66z"/>
		<path class="st10" d="M307.85,295.09l-9.74-6.16c-0.49-0.31-0.43-0.85,0.14-1.21l7.19-4.54c0.56-0.36,1.42-0.4,1.91-0.09
			l9.74,6.16c0.49,0.31,0.43,0.85-0.14,1.21l-7.19,4.54C309.19,295.36,308.34,295.4,307.85,295.09z"/>
		<path class="st10" d="M262.19,266.23l-9.74-6.16c-0.49-0.31-0.43-0.85,0.14-1.21l7.19-4.54c0.56-0.36,1.42-0.4,1.91-0.09
			l9.74,6.16c0.49,0.31,0.43,0.85-0.14,1.21l-7.19,4.54C263.53,266.5,262.68,266.54,262.19,266.23z"/>
		<path class="st10" d="M261.75,254.28l42.34,26.76c0.53,0.33,0.53,0.87,0,1.2l-7.33,4.63c-0.53,0.33-1.38,0.33-1.9,0l-42.34-26.76
			L261.75,254.28z"/>
		<path class="st10" d="M343.19,311.6l6.78,4.29c0.4,0.25,0.35,0.7-0.11,0.99l-2.94,1.86c-0.46,0.29-1.16,0.32-1.56,0.07l-6.78-4.29
			c-0.4-0.25-0.35-0.7,0.11-0.99l2.94-1.86C342.09,311.38,342.79,311.34,343.19,311.6z"/>
		<path class="st10" d="M333.71,305.6l6.78,4.29c0.4,0.25,0.35,0.7-0.11,0.99l-2.94,1.86c-0.46,0.29-1.16,0.32-1.56,0.07l-6.78-4.29
			c-0.4-0.25-0.35-0.7,0.11-0.99l2.94-1.86C332.61,305.38,333.3,305.35,333.71,305.6z"/>
		<path class="st10" d="M324.3,299.66l6.78,4.29c0.4,0.25,0.35,0.7-0.11,0.99l-2.94,1.86c-0.46,0.29-1.16,0.32-1.56,0.07l-6.78-4.29
			c-0.4-0.25-0.35-0.7,0.11-0.99l2.94-1.86C323.2,299.44,323.9,299.41,324.3,299.66z"/>
		<path class="st10" d="M338.9,302.32l6.78,4.29c0.4,0.25,0.35,0.7-0.11,0.99l-2.94,1.86c-0.46,0.29-1.16,0.32-1.56,0.07l-6.78-4.29
			c-0.4-0.25-0.35-0.7,0.11-0.99l2.94-1.86C337.8,302.1,338.5,302.07,338.9,302.32z"/>
	</g>
	<g class="st9">
		<path class="st10" d="M216.77,237.52l-6.09-3.85c-0.49-0.31-0.43-0.85,0.14-1.21l7.19-4.54c0.56-0.36,1.42-0.4,1.91-0.09
			l6.09,3.85c0.49,0.31,0.43,0.85-0.14,1.21l-7.19,4.54C218.11,237.79,217.26,237.83,216.77,237.52z"/>
		<path class="st10" d="M226.17,243.46l-6.09-3.85c-0.49-0.31-0.43-0.85,0.14-1.21l7.19-4.54c0.56-0.36,1.42-0.4,1.91-0.09
			l6.09,3.85c0.49,0.31,0.43,0.85-0.14,1.21l-7.19,4.54C227.51,243.73,226.66,243.77,226.17,243.46z"/>
		<path class="st10" d="M235.57,249.41l-6.09-3.85c-0.49-0.31-0.43-0.85,0.14-1.21l7.19-4.54c0.56-0.36,1.42-0.4,1.91-0.09
			l6.09,3.85c0.49,0.31,0.43,0.85-0.14,1.21l-7.19,4.54C236.92,249.68,236.06,249.71,235.57,249.41z"/>
		<path class="st10" d="M248.58,244.5l-6.09-3.85c-0.49-0.31-0.43-0.85,0.14-1.21l6.03-3.81c0.56-0.36,1.42-0.4,1.91-0.09l6.09,3.85
			c0.49,0.31,0.43,0.85-0.14,1.21l-6.03,3.81C249.92,244.77,249.07,244.81,248.58,244.5z"/>
		<path class="st10" d="M257.98,250.44l-6.09-3.85c-0.49-0.31-0.43-0.85,0.14-1.21l6.03-3.81c0.56-0.36,1.42-0.4,1.91-0.09
			l6.09,3.85c0.49,0.31,0.43,0.85-0.14,1.21l-6.03,3.81C259.32,250.71,258.47,250.75,257.98,250.44z"/>
		<path class="st10" d="M267.38,256.38l-6.09-3.85c-0.49-0.31-0.43-0.85,0.14-1.21l6.03-3.81c0.56-0.36,1.42-0.4,1.91-0.09
			l6.09,3.85c0.49,0.31,0.43,0.85-0.14,1.21l-6.03,3.81C268.73,256.65,267.87,256.69,267.38,256.38z"/>
		<path class="st10" d="M276.79,262.33l-6.09-3.85c-0.49-0.31-0.43-0.85,0.14-1.21l6.03-3.81c0.56-0.36,1.42-0.4,1.91-0.09
			l6.09,3.85c0.49,0.31,0.43,0.85-0.14,1.21l-6.03,3.81C278.13,262.6,277.27,262.64,276.79,262.33z"/>
		<path class="st10" d="M286.19,268.27l-6.09-3.85c-0.49-0.31-0.43-0.85,0.14-1.21l6.03-3.81c0.56-0.36,1.42-0.4,1.91-0.09
			l6.09,3.85c0.49,0.31,0.43,0.85-0.14,1.21l-6.03,3.81C287.53,268.54,286.68,268.58,286.19,268.27z"/>
		<path class="st10" d="M295.59,274.22l-6.09-3.85c-0.49-0.31-0.43-0.85,0.14-1.21l6.03-3.81c0.56-0.36,1.42-0.4,1.91-0.09
			l6.09,3.85c0.49,0.31,0.43,0.85-0.14,1.21l-6.03,3.81C296.93,274.49,296.08,274.52,295.59,274.22z"/>
		<path class="st10" d="M304.99,280.16l-6.09-3.85c-0.49-0.31-0.43-0.85,0.14-1.21l6.03-3.81c0.56-0.36,1.42-0.4,1.91-0.09
			l6.09,3.85c0.49,0.31,0.43,0.85-0.14,1.21l-6.03,3.81C306.34,280.43,305.48,280.47,304.99,280.16z"/>
		<path class="st10" d="M314.4,286.1l-6.09-3.85c-0.49-0.31-0.43-0.85,0.14-1.21l6.03-3.81c0.56-0.36,1.42-0.4,1.91-0.09l6.09,3.85
			c0.49,0.31,0.43,0.85-0.14,1.21l-6.03,3.81C315.74,286.37,314.89,286.41,314.4,286.1z"/>
		<path class="st10" d="M323.8,292.05l-6.09-3.85c-0.49-0.31-0.43-0.85,0.14-1.21l6.03-3.81c0.56-0.36,1.42-0.4,1.91-0.09l6.09,3.85
			c0.49,0.31,0.43,0.85-0.14,1.21l-6.03,3.81C325.14,292.32,324.29,292.36,323.8,292.05z"/>
		<path class="st10" d="M333.2,297.99l-6.09-3.85c-0.49-0.31-0.43-0.85,0.14-1.21l6.03-3.81c0.56-0.36,1.42-0.4,1.91-0.09l6.09,3.85
			c0.49,0.31,0.43,0.85-0.14,1.21l-6.03,3.81C334.54,298.26,333.69,298.3,333.2,297.99z"/>
		<path class="st10" d="M262.43,241.68l-6.09-3.85c-0.49-0.31-0.43-0.85,0.14-1.21l6.03-3.81c0.56-0.36,1.42-0.4,1.91-0.09
			l6.09,3.85c0.49,0.31,0.43,0.85-0.14,1.21l-6.03,3.81C263.77,241.95,262.92,241.99,262.43,241.68z"/>
		<path class="st10" d="M252.89,235.65l-6.09-3.85c-0.49-0.31-0.43-0.85,0.14-1.21l6.03-3.81c0.56-0.36,1.42-0.4,1.91-0.09
			l6.09,3.85c0.49,0.31,0.43,0.85-0.14,1.21l-6.03,3.81C254.23,235.92,253.38,235.96,252.89,235.65z"/>
		<path class="st10" d="M243.33,229.61l-13.11-8.29c-0.49-0.31-0.43-0.85,0.14-1.21l6.03-3.81c0.56-0.36,1.42-0.4,1.91-0.09
			l13.11,8.29c0.49,0.31,0.43,0.85-0.14,1.21l-6.03,3.81C244.67,229.88,243.82,229.92,243.33,229.61z"/>
		<path class="st10" d="M250.01,222.26l-10.64-6.73c-0.49-0.31-0.43-0.85,0.14-1.21l6.03-3.81c0.56-0.36,1.42-0.4,1.91-0.09
			l10.64,6.73c0.49,0.31,0.43,0.85-0.14,1.21l-6.03,3.81C251.35,222.53,250.5,222.57,250.01,222.26z"/>
		<path class="st10" d="M271.83,247.63l-6.09-3.85c-0.49-0.31-0.43-0.85,0.14-1.21l6.03-3.81c0.56-0.36,1.42-0.4,1.91-0.09
			l6.09,3.85c0.49,0.31,0.43,0.85-0.14,1.21l-6.03,3.81C273.18,247.9,272.32,247.94,271.83,247.63z"/>
		<path class="st10" d="M281.24,253.57l-6.09-3.85c-0.49-0.31-0.43-0.85,0.14-1.21l6.03-3.81c0.56-0.36,1.42-0.4,1.91-0.09
			l6.09,3.85c0.49,0.31,0.43,0.85-0.14,1.21l-6.03,3.81C282.58,253.84,281.73,253.88,281.24,253.57z"/>
		<path class="st10" d="M290.64,259.51l-6.09-3.85c-0.49-0.31-0.43-0.85,0.14-1.21l6.03-3.81c0.56-0.36,1.42-0.4,1.91-0.09
			l6.09,3.85c0.49,0.31,0.43,0.85-0.14,1.21l-6.03,3.81C291.98,259.78,291.13,259.82,290.64,259.51z"/>
		<path class="st10" d="M300.04,265.46l-6.09-3.85c-0.49-0.31-0.43-0.85,0.14-1.21l6.03-3.81c0.56-0.36,1.42-0.4,1.91-0.09
			l6.09,3.85c0.49,0.31,0.43,0.85-0.14,1.21l-6.03,3.81C301.39,265.73,300.53,265.77,300.04,265.46z"/>
		<path class="st10" d="M309.45,271.4l-6.09-3.85c-0.49-0.31-0.43-0.85,0.14-1.21l6.03-3.81c0.56-0.36,1.42-0.4,1.91-0.09l6.09,3.85
			c0.49,0.31,0.43,0.85-0.14,1.21l-6.03,3.81C310.79,271.67,309.93,271.71,309.45,271.4z"/>
		<path class="st10" d="M318.85,277.35l-6.09-3.85c-0.49-0.31-0.43-0.85,0.14-1.21l6.03-3.81c0.56-0.36,1.42-0.4,1.91-0.09
			l6.09,3.85c0.49,0.31,0.43,0.85-0.14,1.21l-6.03,3.81C320.19,277.62,319.34,277.65,318.85,277.35z"/>
		<path class="st10" d="M328.25,283.29l-6.09-3.85c-0.49-0.31-0.43-0.85,0.14-1.21l6.03-3.81c0.56-0.36,1.42-0.4,1.91-0.09
			l6.09,3.85c0.49,0.31,0.43,0.85-0.14,1.21l-6.03,3.81C329.59,283.56,328.74,283.6,328.25,283.29z"/>
		<path class="st10" d="M337.65,289.23l-6.09-3.85c-0.49-0.31-0.43-0.85,0.14-1.21l6.03-3.81c0.56-0.36,1.42-0.4,1.91-0.09
			l6.09,3.85c0.49,0.31,0.43,0.85-0.14,1.21l-6.03,3.81C339,289.5,338.14,289.54,337.65,289.23z"/>
		<path class="st10" d="M347.06,295.18l-6.09-3.85c-0.49-0.31-0.43-0.85,0.14-1.21l6.03-3.81c0.56-0.36,1.42-0.4,1.91-0.09
			l6.09,3.85c0.49,0.31,0.43,0.85-0.14,1.21l-6.03,3.81C348.4,295.45,347.55,295.49,347.06,295.18z"/>
		<path class="st10" d="M363.77,305.74l-13.28-8.4c-0.49-0.31-0.43-0.85,0.14-1.21l6.03-3.81c0.56-0.36,1.42-0.4,1.91-0.09
			l13.28,8.4c0.49,0.31,0.43,0.85-0.14,1.21l-6.03,3.81C365.12,306.01,364.26,306.05,363.77,305.74z"/>
		<path class="st10" d="M382.08,294.17l-11.21-7.09c-0.49-0.31-0.43-0.85,0.14-1.21l6.03-3.81c0.56-0.36,1.42-0.4,1.91-0.09
			l11.21,7.09c0.49,0.31,0.43,0.85-0.14,1.21l-6.03,3.81C383.42,294.44,382.57,294.48,382.08,294.17z"/>
		<path class="st10" d="M288.3,246.46l-6.09-3.85c-0.49-0.31-0.43-0.85,0.14-1.21l6.03-3.81c0.56-0.36,1.42-0.4,1.91-0.09l6.09,3.85
			c0.49,0.31,0.43,0.85-0.14,1.21l-6.03,3.81C289.64,246.73,288.79,246.77,288.3,246.46z"/>
		<path class="st10" d="M278.66,240.37l-6.09-3.85c-0.49-0.31-0.43-0.85,0.14-1.21l6.03-3.81c0.56-0.36,1.42-0.4,1.91-0.09
			l6.09,3.85c0.49,0.31,0.43,0.85-0.14,1.21l-6.03,3.81C280.01,240.64,279.15,240.68,278.66,240.37z"/>
		<path class="st10" d="M269.03,234.28l-6.09-3.85c-0.49-0.31-0.43-0.85,0.14-1.21l6.03-3.81c0.56-0.36,1.42-0.4,1.91-0.09
			l6.09,3.85c0.49,0.31,0.43,0.85-0.14,1.21l-6.03,3.81C270.37,234.55,269.52,234.59,269.03,234.28z"/>
		<path class="st10" d="M259.39,228.19l-6.09-3.85c-0.49-0.31-0.43-0.85,0.14-1.21l6.03-3.81c0.56-0.36,1.42-0.4,1.91-0.09
			l6.09,3.85c0.49,0.31,0.43,0.85-0.14,1.21l-6.03,3.81C260.73,228.46,259.88,228.5,259.39,228.19z"/>
		<path class="st10" d="M297.7,252.41l-6.09-3.85c-0.49-0.31-0.43-0.85,0.14-1.21l6.03-3.81c0.56-0.36,1.42-0.4,1.91-0.09l6.09,3.85
			c0.49,0.31,0.43,0.85-0.14,1.21l-6.03,3.81C299.05,252.68,298.19,252.72,297.7,252.41z"/>
		<path class="st10" d="M307.11,258.35l-6.09-3.85c-0.49-0.31-0.43-0.85,0.14-1.21l6.03-3.81c0.56-0.36,1.42-0.4,1.91-0.09
			l6.09,3.85c0.49,0.31,0.43,0.85-0.14,1.21l-6.03,3.81C308.45,258.62,307.6,258.66,307.11,258.35z"/>
		<path class="st10" d="M316.51,264.29l-6.09-3.85c-0.49-0.31-0.43-0.85,0.14-1.21l6.03-3.81c0.56-0.36,1.42-0.4,1.91-0.09
			l6.09,3.85c0.49,0.31,0.43,0.85-0.14,1.21l-6.03,3.81C317.85,264.57,317,264.6,316.51,264.29z"/>
		<path class="st10" d="M325.91,270.24l-6.09-3.85c-0.49-0.31-0.43-0.85,0.14-1.21l6.03-3.81c0.56-0.36,1.42-0.4,1.91-0.09
			l6.09,3.85c0.49,0.31,0.43,0.85-0.14,1.21l-6.03,3.81C327.25,270.51,326.4,270.55,325.91,270.24z"/>
		<path class="st10" d="M335.31,276.18l-6.09-3.85c-0.49-0.31-0.43-0.85,0.14-1.21l6.03-3.81c0.56-0.36,1.42-0.4,1.91-0.09
			l6.09,3.85c0.49,0.31,0.43,0.85-0.14,1.21l-6.03,3.81C336.66,276.45,335.8,276.49,335.31,276.18z"/>
		<path class="st10" d="M344.72,282.13l-6.09-3.85c-0.49-0.31-0.43-0.85,0.14-1.21l6.03-3.81c0.56-0.36,1.42-0.4,1.91-0.09
			l6.09,3.85c0.49,0.31,0.43,0.85-0.14,1.21l-6.03,3.81C346.06,282.4,345.21,282.44,344.72,282.13z"/>
		<path class="st10" d="M354.12,288.07l-6.09-3.85c-0.49-0.31-0.43-0.85,0.14-1.21l6.03-3.81c0.56-0.36,1.42-0.4,1.91-0.09
			l6.09,3.85c0.49,0.31,0.43,0.85-0.14,1.21l-6.03,3.81C355.46,288.34,354.61,288.38,354.12,288.07z"/>
		<path class="st10" d="M363.52,294.01l-6.09-3.85c-0.49-0.31-0.43-0.85,0.14-1.21l6.03-3.81c0.56-0.36,1.42-0.4,1.91-0.09
			l6.09,3.85c0.49,0.31,0.43,0.85-0.14,1.21l-6.03,3.81C364.87,294.28,364.01,294.32,363.52,294.01z"/>
		<path class="st10" d="M372.93,299.96l-6.09-3.85c-0.49-0.31-0.43-0.85,0.14-1.21l6.03-3.81c0.56-0.36,1.42-0.4,1.91-0.09
			l6.09,3.85c0.49,0.31,0.43,0.85-0.14,1.21l-6.03,3.81C374.27,300.23,373.41,300.27,372.93,299.96z"/>
		<path class="st10" d="M283.35,231.76l-6.09-3.85c-0.49-0.31-0.43-0.85,0.14-1.21l6.03-3.81c0.56-0.36,1.42-0.4,1.91-0.09
			l6.09,3.85c0.49,0.31,0.43,0.85-0.14,1.21l-6.03,3.81C284.69,232.03,283.84,232.07,283.35,231.76z"/>
		<path class="st10" d="M273.99,225.85L267.9,222c-0.49-0.31-0.43-0.85,0.14-1.21l6.03-3.81c0.56-0.36,1.42-0.4,1.91-0.09l6.09,3.85
			c0.49,0.31,0.43,0.85-0.14,1.21l-6.03,3.81C275.34,226.12,274.48,226.16,273.99,225.85z"/>
		<path class="st10" d="M264.64,219.93l-6.09-3.85c-0.49-0.31-0.43-0.85,0.14-1.21l6.03-3.81c0.56-0.36,1.42-0.4,1.91-0.09
			l6.09,3.85c0.49,0.31,0.43,0.85-0.14,1.21l-6.03,3.81C265.98,220.2,265.13,220.24,264.64,219.93z"/>
		<path class="st10" d="M255.28,214.02l-6.09-3.85c-0.49-0.31-0.43-0.85,0.14-1.21l6.03-3.81c0.56-0.36,1.42-0.4,1.91-0.09
			l6.09,3.85c0.49,0.31,0.43,0.85-0.14,1.21l-6.03,3.81C256.62,214.29,255.77,214.33,255.28,214.02z"/>
		<path class="st10" d="M264.9,207.94l-6.09-3.85c-0.49-0.31-0.43-0.85,0.14-1.21l1.99-1.26c0.56-0.36,1.42-0.4,1.91-0.09l6.09,3.85
			c0.49,0.31,0.43,0.85-0.14,1.21l-1.99,1.26C266.25,208.21,265.39,208.25,264.9,207.94z"/>
		<path class="st10" d="M277.11,215.66l-6.09-3.85c-0.49-0.31-0.43-0.85,0.14-1.21l1.99-1.26c0.56-0.36,1.42-0.4,1.91-0.09
			l6.09,3.85c0.49,0.31,0.43,0.85-0.14,1.21l-1.99,1.26C278.45,215.93,277.6,215.96,277.11,215.66z"/>
		<path class="st10" d="M286.43,221.54l-6.09-3.85c-0.49-0.31-0.43-0.85,0.14-1.21l1.99-1.26c0.56-0.36,1.42-0.4,1.91-0.09
			l6.09,3.85c0.49,0.31,0.43,0.85-0.14,1.21l-1.99,1.26C287.77,221.82,286.92,221.85,286.43,221.54z"/>
		<path class="st10" d="M295.75,227.43l-6.09-3.85c-0.49-0.31-0.43-0.85,0.14-1.21l1.99-1.26c0.56-0.36,1.42-0.4,1.91-0.09
			l6.09,3.85c0.49,0.31,0.43,0.85-0.14,1.21l-1.99,1.26C297.09,227.7,296.23,227.74,295.75,227.43z"/>
		<path class="st10" d="M305.06,233.32l-6.09-3.85c-0.49-0.31-0.43-0.85,0.14-1.21l1.99-1.26c0.56-0.36,1.42-0.4,1.91-0.09
			l6.09,3.85c0.49,0.31,0.43,0.85-0.14,1.21l-1.99,1.26C306.41,233.59,305.55,233.63,305.06,233.32z"/>
		<path class="st10" d="M357.08,266.21l-6.09-3.85c-0.49-0.31-0.43-0.85,0.14-1.21l1.99-1.26c0.56-0.36,1.42-0.4,1.91-0.09
			l6.09,3.85c0.49,0.31,0.43,0.85-0.14,1.21l-1.99,1.26C358.42,266.48,357.57,266.51,357.08,266.21z"/>
		<path class="st10" d="M366.39,272.09l-6.09-3.85c-0.49-0.31-0.43-0.85,0.14-1.21l1.99-1.26c0.56-0.36,1.42-0.4,1.91-0.09
			l6.09,3.85c0.49,0.31,0.43,0.85-0.14,1.21l-1.99,1.26C367.74,272.36,366.88,272.4,366.39,272.09z"/>
		<path class="st10" d="M375.71,277.98l-6.09-3.85c-0.49-0.31-0.43-0.85,0.14-1.21l1.99-1.26c0.56-0.36,1.42-0.4,1.91-0.09
			l6.09,3.85c0.49,0.31,0.43,0.85-0.14,1.21l-1.99,1.26C377.05,278.25,376.2,278.29,375.71,277.98z"/>
		<path class="st10" d="M385.03,283.87l-6.09-3.85c-0.49-0.31-0.43-0.85,0.14-1.21l1.99-1.26c0.56-0.36,1.42-0.4,1.91-0.09
			l6.09,3.85c0.49,0.31,0.43,0.85-0.14,1.21l-1.99,1.26C386.37,284.14,385.52,284.18,385.03,283.87z"/>
		<path class="st10" d="M292.75,237.71l-6.09-3.85c-0.49-0.31-0.43-0.85,0.14-1.21l6.03-3.81c0.56-0.36,1.42-0.4,1.91-0.09
			l6.09,3.85c0.49,0.31,0.43,0.85-0.14,1.21l-6.03,3.81C294.1,237.98,293.24,238.01,292.75,237.71z"/>
		<path class="st10" d="M302.15,243.65l-6.09-3.85c-0.49-0.31-0.43-0.85,0.14-1.21l6.03-3.81c0.56-0.36,1.42-0.4,1.91-0.09
			l6.09,3.85c0.49,0.31,0.43,0.85-0.14,1.21l-6.03,3.81C303.5,243.92,302.64,243.96,302.15,243.65z"/>
		<path class="st10" d="M311.56,249.59l-6.09-3.85c-0.49-0.31-0.43-0.85,0.14-1.21l6.03-3.81c0.56-0.36,1.42-0.4,1.91-0.09
			l6.09,3.85c0.49,0.31,0.43,0.85-0.14,1.21l-6.03,3.81C312.9,249.86,312.05,249.9,311.56,249.59z"/>
		<path class="st10" d="M320.96,255.54l-6.09-3.85c-0.49-0.31-0.43-0.85,0.14-1.21l6.03-3.81c0.56-0.36,1.42-0.4,1.91-0.09
			l6.09,3.85c0.49,0.31,0.43,0.85-0.14,1.21l-6.03,3.81C322.3,255.81,321.45,255.85,320.96,255.54z"/>
		<path class="st10" d="M330.36,261.48l-6.09-3.85c-0.49-0.31-0.43-0.85,0.14-1.21l6.03-3.81c0.56-0.36,1.42-0.4,1.91-0.09
			l6.09,3.85c0.49,0.31,0.43,0.85-0.14,1.21l-6.03,3.81C331.71,261.75,330.85,261.79,330.36,261.48z"/>
		<path class="st10" d="M339.77,267.42l-6.09-3.85c-0.49-0.31-0.43-0.85,0.14-1.21l6.03-3.81c0.56-0.36,1.42-0.4,1.91-0.09
			l6.09,3.85c0.49,0.31,0.43,0.85-0.14,1.21l-6.03,3.81C341.11,267.7,340.25,267.73,339.77,267.42z"/>
		<path class="st10" d="M349.17,273.37l-6.09-3.85c-0.49-0.31-0.43-0.85,0.14-1.21l6.03-3.81c0.56-0.36,1.42-0.4,1.91-0.09
			l6.09,3.85c0.49,0.31,0.43,0.85-0.14,1.21l-6.03,3.81C350.51,273.64,349.66,273.68,349.17,273.37z"/>
		<path class="st10" d="M358.57,279.31l-6.09-3.85c-0.49-0.31-0.43-0.85,0.14-1.21l6.03-3.81c0.56-0.36,1.42-0.4,1.91-0.09
			l6.09,3.85c0.49,0.31,0.43,0.85-0.14,1.21l-6.03,3.81C359.91,279.58,359.06,279.62,358.57,279.31z"/>
		<path class="st10" d="M367.97,285.26l-6.09-3.85c-0.49-0.31-0.43-0.85,0.14-1.21l6.03-3.81c0.56-0.36,1.42-0.4,1.91-0.09
			l6.09,3.85c0.49,0.31,0.43,0.85-0.14,1.21l-6.03,3.81C369.32,285.53,368.46,285.57,367.97,285.26z"/>
		<path class="st10" d="M239,238.44l-17.93-11.34c-0.49-0.31-0.43-0.85,0.14-1.21l6.03-3.81c0.56-0.36,1.42-0.4,1.91-0.09
			l17.93,11.34c0.49,0.31,0.43,0.85-0.14,1.21l-6.03,3.81C240.34,238.71,239.48,238.75,239,238.44z"/>
		<path class="st10" d="M354.51,311.46l-17.93-11.34c-0.49-0.31-0.43-0.85,0.14-1.21l6.03-3.81c0.56-0.36,1.42-0.4,1.91-0.09
			l17.93,11.34c0.49,0.31,0.43,0.85-0.14,1.21l-6.03,3.81C355.85,311.73,355,311.77,354.51,311.46z"/>
		<path class="st10" d="M316.91,300.82l-6.09-3.85c-0.49-0.31-0.43-0.85,0.14-1.21l7.19-4.54c0.56-0.36,1.42-0.4,1.91-0.09
			l6.09,3.85c0.49,0.31,0.43,0.85-0.14,1.21l-7.19,4.54C318.25,301.09,317.4,301.13,316.91,300.82z"/>
		<path class="st10" d="M248.62,257.66l-9.74-6.16c-0.49-0.31-0.43-0.85,0.14-1.21l7.19-4.54c0.56-0.36,1.42-0.4,1.91-0.09
			l9.74,6.16c0.49,0.31,0.43,0.85-0.14,1.21l-7.19,4.54C249.97,257.93,249.11,257.96,248.62,257.66z"/>
		<path class="st10" d="M307.85,295.09l-9.74-6.16c-0.49-0.31-0.43-0.85,0.14-1.21l7.19-4.54c0.56-0.36,1.42-0.4,1.91-0.09
			l9.74,6.16c0.49,0.31,0.43,0.85-0.14,1.21l-7.19,4.54C309.19,295.36,308.34,295.4,307.85,295.09z"/>
		<path class="st10" d="M262.19,266.23l-9.74-6.16c-0.49-0.31-0.43-0.85,0.14-1.21l7.19-4.54c0.56-0.36,1.42-0.4,1.91-0.09
			l9.74,6.16c0.49,0.31,0.43,0.85-0.14,1.21l-7.19,4.54C263.53,266.5,262.68,266.54,262.19,266.23z"/>
		<path class="st10" d="M261.75,254.28l42.34,26.76c0.53,0.33,0.53,0.87,0,1.2l-7.33,4.63c-0.53,0.33-1.38,0.33-1.9,0l-42.34-26.76
			L261.75,254.28z"/>
		<path class="st10" d="M343.19,311.6l6.78,4.29c0.4,0.25,0.35,0.7-0.11,0.99l-2.94,1.86c-0.46,0.29-1.16,0.32-1.56,0.07l-6.78-4.29
			c-0.4-0.25-0.35-0.7,0.11-0.99l2.94-1.86C342.09,311.38,342.79,311.34,343.19,311.6z"/>
		<path class="st10" d="M333.71,305.6l6.78,4.29c0.4,0.25,0.35,0.7-0.11,0.99l-2.94,1.86c-0.46,0.29-1.16,0.32-1.56,0.07l-6.78-4.29
			c-0.4-0.25-0.35-0.7,0.11-0.99l2.94-1.86C332.61,305.38,333.3,305.35,333.71,305.6z"/>
		<path class="st10" d="M324.3,299.66l6.78,4.29c0.4,0.25,0.35,0.7-0.11,0.99l-2.94,1.86c-0.46,0.29-1.16,0.32-1.56,0.07l-6.78-4.29
			c-0.4-0.25-0.35-0.7,0.11-0.99l2.94-1.86C323.2,299.44,323.9,299.41,324.3,299.66z"/>
		<path class="st10" d="M338.9,302.32l6.78,4.29c0.4,0.25,0.35,0.7-0.11,0.99l-2.94,1.86c-0.46,0.29-1.16,0.32-1.56,0.07l-6.78-4.29
			c-0.4-0.25-0.35-0.7,0.11-0.99l2.94-1.86C337.8,302.1,338.5,302.07,338.9,302.32z"/>
	</g>
	<linearGradient id="SVGID_8_" gradientUnits="userSpaceOnUse" x1="259.0275" y1="154.888" x2="482.4951" y2="154.888">
		<stop  offset="0" style="stop-color:#3919BB"/>
		<stop  offset="1" style="stop-color:#6507FA"/>
	</linearGradient>
	<path class="st11" d="M436.72,285.24L262.48,175.01c-2.7-1.71-4.11-5.87-3.15-9.3l38.84-138.06c0.96-3.43,3.93-4.82,6.64-3.11
		l174.24,110.23c2.7,1.71,4.11,5.87,3.15,9.3l-38.84,138.06C442.39,285.56,439.42,286.95,436.72,285.24z"/>
	<path class="st12" d="M436.72,285.24L262.48,175.01c-2.7-1.71-4.11-5.87-3.15-9.3l38.84-138.06c0.96-3.43,3.93-4.82,6.64-3.11
		l174.24,110.23c2.7,1.71,4.11,5.87,3.15,9.3l-38.84,138.06C442.39,285.56,439.42,286.95,436.72,285.24z"/>
	<path class="st13" d="M436.72,285.24L262.48,175.01c-2.7-1.71-4.11-5.87-3.15-9.3l38.84-138.06c0.96-3.43,3.93-4.82,6.64-3.11
		l174.24,110.23c2.7,1.71,4.11,5.87,3.15,9.3l-38.84,138.06C442.39,285.56,439.42,286.95,436.72,285.24z"/>
	<path class="st14" d="M427.36,243.05l-117.95-74.56c-1.85-1.17-2.82-4.03-2.16-6.38l26.67-94.82c0.66-2.35,2.7-3.31,4.55-2.13
		l117.95,74.56c1.85,1.17,2.82,4.03,2.16,6.38l-26.67,94.82C431.25,243.27,429.21,244.22,427.36,243.05z"/>
	<g>
		
			<radialGradient id="SVGID_9_" cx="111.554" cy="18.9714" r="347.8475" gradientTransform="matrix(1.2487 0 0 1.3672 -12.7219 -16.4056)" gradientUnits="userSpaceOnUse">
			<stop  offset="0" style="stop-color:#E39A65"/>
			<stop  offset="0.4742" style="stop-color:#A92FFB"/>
			<stop  offset="0.5875" style="stop-color:#891CFB"/>
			<stop  offset="0.7262" style="stop-color:#6507FA"/>
			<stop  offset="1" style="stop-color:#3919BB"/>
		</radialGradient>
		<path class="st15" d="M411.42,245.34l-117.95-74.56c-1.85-1.17-2.82-4.03-2.16-6.38l26.67-94.82c0.66-2.35,2.7-3.31,4.55-2.13
			L440.49,142c1.85,1.17,2.82,4.03,2.16,6.38l-26.67,94.82C415.31,245.55,413.27,246.51,411.42,245.34z"/>
	</g>
	<g class="st16">
		<path class="st10" d="M411.42,245.34l-117.95-74.56c-1.85-1.17-2.82-4.03-2.16-6.38l26.67-94.82c0.66-2.35,2.7-3.31,4.55-2.13
			L440.49,142c1.85,1.17,2.82,4.03,2.16,6.38l-26.67,94.82C415.31,245.55,413.27,246.51,411.42,245.34z"/>
	</g>
	<path class="st17" d="M440.49,142L322.54,67.44c-1.16-0.73-2.4-0.63-3.32,0.12c0.56-0.02,1.14,0.12,1.7,0.48l117.95,74.56
		c1.85,1.17,2.82,4.03,2.16,6.38l-26.67,94.82c-0.25,0.88-0.69,1.56-1.24,2.01c1.27-0.04,2.39-0.98,2.85-2.61l26.67-94.82
		C443.31,146.03,442.34,143.17,440.49,142z"/>
	<path class="st12" d="M262.66,322.77c-1.63,0-3.18-0.37-4.37-1.12v0l-47.26-29.87c-1.25-0.79-1.94-1.92-1.94-3.19
		c0-1.47,0.95-2.91,2.61-3.95l24.32-15.38c2.97-1.88,7.33-2.06,9.94-0.42l47.26,29.87c1.25,0.79,1.94,1.92,1.94,3.19
		c0,1.47-0.95,2.91-2.61,3.95l-24.33,15.38C266.61,322.25,264.59,322.77,262.66,322.77z M241.61,269.23c-1.71,0-3.52,0.45-4.9,1.32
		l-24.32,15.38c-1.22,0.77-1.93,1.74-1.93,2.66c0,0.91,0.69,1.53,1.26,1.89l47.26,29.87c2.14,1.35,6.07,1.16,8.57-0.42l24.33-15.38
		c1.22-0.77,1.92-1.74,1.92-2.66c0-0.91-0.69-1.53-1.26-1.89l-47.26-29.87C244.32,269.53,243,269.23,241.61,269.23z"/>
</g>
<g>
	<path class="st18" d="M348.68,137.97l-21.21-13.4c-0.68-0.43-1.04-1.46-0.81-2.3l0,0c0.23-0.84,0.96-1.17,1.64-0.75l21.21,13.4
		c0.68,0.43,1.04,1.46,0.81,2.3l0,0C350.09,138.07,349.36,138.4,348.68,137.97z"/>
	<path class="st18" d="M336.17,145.01L324,137.32c-0.68-0.43-1.04-1.46-0.81-2.3l0,0c0.23-0.84,0.96-1.17,1.64-0.75l12.17,7.69
		c0.68,0.43,1.04,1.46,0.81,2.3l0,0C337.58,145.1,336.84,145.44,336.17,145.01z"/>
	<path class="st18" d="M356.46,150.37l-4.42-2.79c-0.68-0.43-1.04-1.46-0.81-2.3l0,0c0.23-0.84,0.96-1.17,1.64-0.75l4.42,2.79
		c0.68,0.43,1.04,1.46,0.81,2.3l0,0C357.88,150.46,357.14,150.8,356.46,150.37z"/>
	<path class="st18" d="M401.43,148.9l-26.18-16.55c-0.68-0.43-1.04-1.46-0.81-2.3l0,0c0.23-0.84,0.96-1.17,1.64-0.75l26.18,16.55
		c0.68,0.43,1.04,1.46,0.81,2.3l0,0C402.84,148.99,402.11,149.33,401.43,148.9z"/>
	<path class="st19" d="M335.15,159.32l-14.63-9.25c-0.68-0.43-1.04-1.46-0.81-2.3l0,0c0.23-0.84,0.96-1.17,1.64-0.75l14.63,9.25
		c0.68,0.43,1.04,1.46,0.81,2.3l0,0C336.56,159.41,335.83,159.74,335.15,159.32z"/>
	<path class="st19" d="M337.36,108.39l-10.75-6.8c-0.68-0.43-1.04-1.46-0.81-2.3l0,0c0.23-0.84,0.96-1.17,1.64-0.75l10.75,6.8
		c0.68,0.43,1.04,1.46,0.81,2.3l0,0C338.77,108.49,338.03,108.82,337.36,108.39z"/>
	<path class="st18" d="M321.69,173.22l-12.45-7.87c-0.68-0.43-1.04-1.46-0.81-2.3l0,0c0.23-0.84,0.96-1.17,1.64-0.75l12.45,7.87
		c0.68,0.43,1.04,1.46,0.81,2.3l0,0C323.1,173.32,322.36,173.65,321.69,173.22z"/>
	<g>
		<path class="st17" d="M351.27,117.19l-7.29-4.61c-0.68-0.43-1.04-1.46-0.81-2.3l0,0c0.23-0.84,0.96-1.17,1.64-0.75l7.29,4.61
			c0.68,0.43,1.04,1.46,0.81,2.3l0,0C352.68,117.28,351.94,117.61,351.27,117.19z"/>
		<path class="st17" d="M368.64,128.17l-10.75-6.8c-0.68-0.43-1.04-1.46-0.81-2.3l0,0c0.23-0.84,0.96-1.17,1.64-0.75l10.75,6.8
			c0.68,0.43,1.04,1.46,0.81,2.3l0,0C370.05,128.26,369.31,128.59,368.64,128.17z"/>
		<path class="st17" d="M336.56,152.73l-7.29-4.61c-0.68-0.43-1.04-1.46-0.81-2.3l0,0c0.23-0.84,0.96-1.17,1.64-0.75l7.29,4.61
			c0.68,0.43,1.04,1.46,0.81,2.3l0,0C337.97,152.83,337.24,153.16,336.56,152.73z"/>
		<path class="st17" d="M352.04,162.52l-10.75-6.8c-0.68-0.43-1.04-1.46-0.81-2.3l0,0c0.23-0.84,0.96-1.17,1.64-0.75l10.75,6.8
			c0.68,0.43,1.04,1.46,0.81,2.3l0,0C353.45,162.61,352.72,162.95,352.04,162.52z"/>
		<path class="st17" d="M329.42,110.85l-4.56-2.88c-0.68-0.43-1.04-1.46-0.81-2.3l0,0c0.23-0.84,0.96-1.17,1.64-0.75l4.56,2.88
			c0.68,0.43,1.04,1.46,0.81,2.3l0,0C330.83,110.95,330.1,111.28,329.42,110.85z"/>
		<path class="st17" d="M343.13,126.99l-13.92-8.8c-0.68-0.43-1.04-1.46-0.81-2.3l0,0c0.23-0.84,0.96-1.17,1.64-0.75l13.92,8.8
			c0.68,0.43,1.04,1.46,0.81,2.3l0,0C344.54,127.08,343.81,127.42,343.13,126.99z"/>
		<path class="st17" d="M330.29,133.82l-4.56-2.88c-0.68-0.43-1.04-1.46-0.81-2.3l0,0c0.23-0.84,0.96-1.17,1.64-0.75l4.56,2.88
			c0.68,0.43,1.04,1.46,0.81,2.3h0C331.7,133.92,330.97,134.25,330.29,133.82z"/>
		<path class="st17" d="M353.72,178.53l-12.17-7.69c-0.68-0.43-1.04-1.46-0.81-2.3l0,0c0.23-0.84,0.96-1.17,1.64-0.75l12.17,7.69
			c0.68,0.43,1.04,1.46,0.81,2.3l0,0C355.13,178.62,354.4,178.96,353.72,178.53z"/>
		<path class="st17" d="M325.19,145.54l-2.92-1.85c-0.68-0.43-1.04-1.46-0.81-2.3l0,0c0.23-0.84,0.96-1.17,1.64-0.75l2.92,1.85
			c0.68,0.43,1.04,1.46,0.81,2.3l0,0C326.6,145.64,325.86,145.97,325.19,145.54z"/>
		<path class="st17" d="M322.42,158.74l-3.63-2.3c-0.68-0.43-1.04-1.46-0.81-2.3v0c0.23-0.84,0.96-1.17,1.64-0.75l3.63,2.3
			c0.68,0.43,1.04,1.46,0.81,2.3l0,0C323.83,158.83,323.1,159.17,322.42,158.74z"/>
		<path class="st17" d="M336.55,167.67l-9.57-6.05c-0.68-0.43-1.04-1.46-0.81-2.3l0,0c0.23-0.84,0.96-1.17,1.64-0.75l9.57,6.05
			c0.68,0.43,1.04,1.46,0.81,2.3l0,0C337.96,167.76,337.22,168.1,336.55,167.67z"/>
		<path class="st17" d="M323.93,167.17l-6.88-4.35c-0.68-0.43-1.04-1.46-0.81-2.3l0,0c0.23-0.84,0.96-1.17,1.64-0.75l6.88,4.35
			c0.68,0.43,1.04,1.46,0.81,2.3l0,0C325.35,167.27,324.61,167.6,323.93,167.17z"/>
		<path class="st17" d="M364.16,185.16l-4.42-2.79c-0.68-0.43-1.04-1.46-0.81-2.3l0,0c0.23-0.84,0.96-1.17,1.64-0.75l4.42,2.79
			c0.68,0.43,1.04,1.46,0.81,2.3l0,0C365.57,185.25,364.84,185.59,364.16,185.16z"/>
		<path class="st17" d="M347.24,144.53l-12.17-7.69c-0.68-0.43-1.04-1.46-0.81-2.3l0,0c0.23-0.84,0.96-1.17,1.64-0.75l12.17,7.69
			c0.68,0.43,1.04,1.46,0.81,2.3l0,0C348.65,144.63,347.91,144.96,347.24,144.53z"/>
	</g>
</g>
<g>
	<path class="st17" d="M404.37,134.16l-5.33-3.37c-0.49-0.31-0.76-1.06-0.59-1.68l0,0c0.17-0.61,0.7-0.86,1.2-0.55l5.33,3.37
		c0.49,0.31,0.76,1.06,0.59,1.68l0,0C405.4,134.23,404.86,134.47,404.37,134.16z"/>
	<path class="st17" d="M414.54,140.58l-5.33-3.37c-0.49-0.31-0.76-1.06-0.59-1.68l0,0c0.17-0.61,0.7-0.86,1.2-0.55l5.33,3.37
		c0.49,0.31,0.76,1.06,0.59,1.68l0,0C415.57,140.65,415.03,140.9,414.54,140.58z"/>
	<path class="st17" d="M424.7,147.01l-5.33-3.37c-0.49-0.31-0.76-1.06-0.59-1.68l0,0c0.17-0.61,0.7-0.86,1.2-0.55l5.33,3.37
		c0.49,0.31,0.76,1.06,0.59,1.68l0,0C425.73,147.08,425.2,147.32,424.7,147.01z"/>
	<path class="st19" d="M429.7,150.17l-0.16-0.11c-0.49-0.31-0.76-1.06-0.59-1.68l0,0c0.17-0.61,0.7-0.86,1.2-0.55l0.16,0.11
		c0.49,0.31,0.76,1.06,0.59,1.68l0,0C430.73,150.24,430.19,150.49,429.7,150.17z"/>
</g>
<linearGradient id="SVGID_10_" gradientUnits="userSpaceOnUse" x1="106.6713" y1="188.3579" x2="202.5375" y2="188.3579">
	<stop  offset="0" style="stop-color:#A55EBE"/>
	<stop  offset="1" style="stop-color:#26202E"/>
</linearGradient>
<path class="st20" d="M154.6,218.47c-3.37,0-6.75-0.95-9.76-2.85l0,0l-35.7-22.57c-1.55-0.98-2.47-2.73-2.47-4.69
	c0-1.96,0.92-3.71,2.47-4.69l35.7-22.57c6.02-3.8,13.49-3.81,19.51,0l35.7,22.57c1.55,0.98,2.47,2.73,2.47,4.69
	c0,1.96-0.92,3.71-2.47,4.69l-35.7,22.57C161.35,217.52,157.98,218.47,154.6,218.47z M146.01,213.41c5.3,3.35,11.89,3.35,17.19,0
	l35.7-22.57c0.82-0.52,1.31-1.45,1.31-2.48s-0.49-1.97-1.31-2.48l-35.7-22.57c-5.3-3.35-11.89-3.35-17.19,0l-35.7,22.57
	c-0.82,0.52-1.31,1.45-1.31,2.48c0,1.04,0.49,1.97,1.31,2.48L146.01,213.41z"/>
</svg>
